<mxfile host="Electron" agent="Mozilla/5.0 (Windows NT 10.0; Win64; x64) AppleWebKit/537.36 (KHTML, like Gecko) draw.io/26.0.16 Chrome/132.0.6834.196 Electron/34.2.0 Safari/537.36" version="26.0.16">
  <diagram name="Page-1" id="R4kwqMxJ29tH6rsHjHt9">
    <mxGraphModel dx="1151" dy="673" grid="1" gridSize="10" guides="1" tooltips="1" connect="1" arrows="1" fold="1" page="1" pageScale="1" pageWidth="827" pageHeight="1169" math="0" shadow="0">
      <root>
        <mxCell id="0" />
        <mxCell id="1" parent="0" />
        <mxCell id="h60HWDkxlKDAQllnQinD-2" value="BUILDING 1" style="rounded=1;whiteSpace=wrap;html=1;fillColor=none;labelPosition=center;verticalLabelPosition=top;align=center;verticalAlign=bottom;" vertex="1" parent="1">
          <mxGeometry x="30" y="60" width="290" height="580" as="geometry" />
        </mxCell>
        <mxCell id="h60HWDkxlKDAQllnQinD-3" value="Internet Modem&amp;nbsp;&lt;div&gt;192.168.2.1&lt;/div&gt;" style="fontColor=#0066CC;verticalAlign=bottom;verticalLabelPosition=top;labelPosition=center;align=center;html=1;outlineConnect=0;fillColor=#CCCCCC;strokeColor=#6881B3;gradientColor=none;gradientDirection=north;strokeWidth=2;shape=mxgraph.networks.modem;" vertex="1" parent="1">
          <mxGeometry x="80" y="100" width="70" height="20" as="geometry" />
        </mxCell>
        <mxCell id="h60HWDkxlKDAQllnQinD-4" value="VoIP Modem&lt;div&gt;192.168.2.1&lt;/div&gt;" style="fontColor=#0066CC;verticalAlign=bottom;verticalLabelPosition=top;labelPosition=center;align=center;html=1;outlineConnect=0;fillColor=#CCCCCC;strokeColor=#6881B3;gradientColor=none;gradientDirection=north;strokeWidth=2;shape=mxgraph.networks.modem;" vertex="1" parent="1">
          <mxGeometry x="209.75" y="100" width="63.5" height="20" as="geometry" />
        </mxCell>
        <mxCell id="h60HWDkxlKDAQllnQinD-7" value="CISCO&lt;div&gt;POE&lt;/div&gt;&lt;div&gt;Switch&lt;/div&gt;" style="fontColor=#0066CC;verticalAlign=middle;verticalLabelPosition=middle;labelPosition=right;align=left;html=1;outlineConnect=0;fillColor=#CCCCCC;strokeColor=#6881B3;gradientColor=none;gradientDirection=north;strokeWidth=2;shape=mxgraph.networks.switch;" vertex="1" parent="1">
          <mxGeometry x="213.25" y="180" width="60" height="20" as="geometry" />
        </mxCell>
        <mxCell id="h60HWDkxlKDAQllnQinD-12" value="" style="points=[[0.59,0,0],[0.87,0.015,0],[0.88,0.3,0],[0.99,0.99,0],[0.5,1,0],[0.01,0.99,0],[0.075,0.5,0],[0.17,0.115,0]];verticalLabelPosition=bottom;sketch=0;html=1;verticalAlign=top;aspect=fixed;align=center;pointerEvents=1;shape=mxgraph.cisco19.ip_phone;fillColor=#005073;strokeColor=none;" vertex="1" parent="1">
          <mxGeometry x="200" y="240" width="23" height="20" as="geometry" />
        </mxCell>
        <mxCell id="h60HWDkxlKDAQllnQinD-15" value="" style="points=[[0.59,0,0],[0.87,0.015,0],[0.88,0.3,0],[0.99,0.99,0],[0.5,1,0],[0.01,0.99,0],[0.075,0.5,0],[0.17,0.115,0]];verticalLabelPosition=bottom;sketch=0;html=1;verticalAlign=top;aspect=fixed;align=center;pointerEvents=1;shape=mxgraph.cisco19.ip_phone;fillColor=#005073;strokeColor=none;" vertex="1" parent="1">
          <mxGeometry x="231.75" y="240" width="23" height="20" as="geometry" />
        </mxCell>
        <mxCell id="h60HWDkxlKDAQllnQinD-16" value="VoIP Phone" style="points=[[0.59,0,0],[0.87,0.015,0],[0.88,0.3,0],[0.99,0.99,0],[0.5,1,0],[0.01,0.99,0],[0.075,0.5,0],[0.17,0.115,0]];verticalLabelPosition=bottom;sketch=0;html=1;verticalAlign=top;aspect=fixed;align=center;pointerEvents=1;shape=mxgraph.cisco19.ip_phone;fillColor=#005073;strokeColor=none;" vertex="1" parent="1">
          <mxGeometry x="273.25" y="240" width="23" height="20" as="geometry" />
        </mxCell>
        <mxCell id="h60HWDkxlKDAQllnQinD-26" value="PC" style="shape=mxgraph.cisco.computers_and_peripherals.pc;html=1;pointerEvents=1;dashed=0;fillColor=#036897;strokeColor=#ffffff;strokeWidth=2;verticalLabelPosition=bottom;verticalAlign=top;align=center;outlineConnect=0;" vertex="1" parent="1">
          <mxGeometry x="200" y="275" width="30" height="30" as="geometry" />
        </mxCell>
        <mxCell id="h60HWDkxlKDAQllnQinD-29" value="VoIP Gateway 1" style="sketch=0;pointerEvents=1;shadow=0;dashed=0;html=1;strokeColor=none;fillColor=#505050;labelPosition=center;verticalLabelPosition=bottom;verticalAlign=top;outlineConnect=0;align=center;shape=mxgraph.office.communications.voip_gateway;" vertex="1" parent="1">
          <mxGeometry x="130" y="200" width="51" height="15" as="geometry" />
        </mxCell>
        <mxCell id="h60HWDkxlKDAQllnQinD-31" style="edgeStyle=orthogonalEdgeStyle;rounded=0;orthogonalLoop=1;jettySize=auto;html=1;entryX=0.15;entryY=0.8;entryDx=0;entryDy=0;entryPerimeter=0;" edge="1" parent="1" source="h60HWDkxlKDAQllnQinD-12" target="h60HWDkxlKDAQllnQinD-7">
          <mxGeometry relative="1" as="geometry" />
        </mxCell>
        <mxCell id="h60HWDkxlKDAQllnQinD-32" style="edgeStyle=orthogonalEdgeStyle;rounded=0;orthogonalLoop=1;jettySize=auto;html=1;entryX=0.498;entryY=0.733;entryDx=0;entryDy=0;entryPerimeter=0;" edge="1" parent="1" source="h60HWDkxlKDAQllnQinD-15" target="h60HWDkxlKDAQllnQinD-7">
          <mxGeometry relative="1" as="geometry" />
        </mxCell>
        <mxCell id="h60HWDkxlKDAQllnQinD-33" style="edgeStyle=orthogonalEdgeStyle;rounded=0;orthogonalLoop=1;jettySize=auto;html=1;entryX=0.898;entryY=0.756;entryDx=0;entryDy=0;entryPerimeter=0;" edge="1" parent="1" source="h60HWDkxlKDAQllnQinD-16" target="h60HWDkxlKDAQllnQinD-7">
          <mxGeometry relative="1" as="geometry" />
        </mxCell>
        <mxCell id="h60HWDkxlKDAQllnQinD-34" style="edgeStyle=orthogonalEdgeStyle;rounded=0;orthogonalLoop=1;jettySize=auto;html=1;entryX=0.56;entryY=0.8;entryDx=0;entryDy=0;entryPerimeter=0;" edge="1" parent="1" source="h60HWDkxlKDAQllnQinD-26" target="h60HWDkxlKDAQllnQinD-12">
          <mxGeometry relative="1" as="geometry" />
        </mxCell>
        <mxCell id="h60HWDkxlKDAQllnQinD-35" value="VoIP Gateway 2" style="sketch=0;pointerEvents=1;shadow=0;dashed=0;html=1;strokeColor=none;fillColor=#505050;labelPosition=center;verticalLabelPosition=bottom;verticalAlign=top;outlineConnect=0;align=center;shape=mxgraph.office.communications.voip_gateway;" vertex="1" parent="1">
          <mxGeometry x="130" y="245" width="51" height="15" as="geometry" />
        </mxCell>
        <mxCell id="h60HWDkxlKDAQllnQinD-37" style="edgeStyle=orthogonalEdgeStyle;rounded=0;orthogonalLoop=1;jettySize=auto;html=1;entryX=0.998;entryY=0.704;entryDx=0;entryDy=0;entryPerimeter=0;" edge="1" parent="1" source="h60HWDkxlKDAQllnQinD-4" target="h60HWDkxlKDAQllnQinD-35">
          <mxGeometry relative="1" as="geometry" />
        </mxCell>
        <mxCell id="h60HWDkxlKDAQllnQinD-38" value="Ethernet Cable" style="edgeStyle=orthogonalEdgeStyle;rounded=0;orthogonalLoop=1;jettySize=auto;html=1;entryX=0.876;entryY=0.622;entryDx=0;entryDy=0;entryPerimeter=0;" edge="1" parent="1">
          <mxGeometry x="0.0994" y="5" relative="1" as="geometry">
            <mxPoint x="209.75" y="100.67" as="sourcePoint" />
            <mxPoint x="174.67599999999993" y="200.00000000000003" as="targetPoint" />
            <mxPoint as="offset" />
          </mxGeometry>
        </mxCell>
        <mxCell id="h60HWDkxlKDAQllnQinD-39" value="Ethernet Cable" style="edgeStyle=orthogonalEdgeStyle;rounded=0;orthogonalLoop=1;jettySize=auto;html=1;entryX=0.475;entryY=0.267;entryDx=0;entryDy=0;entryPerimeter=0;" edge="1" parent="1" source="h60HWDkxlKDAQllnQinD-4" target="h60HWDkxlKDAQllnQinD-7">
          <mxGeometry relative="1" as="geometry" />
        </mxCell>
        <mxCell id="h60HWDkxlKDAQllnQinD-40" value="Ubiquiti&lt;div&gt;EFG&lt;/div&gt;" style="sketch=0;aspect=fixed;pointerEvents=1;shadow=0;dashed=0;html=1;strokeColor=none;labelPosition=left;verticalLabelPosition=middle;verticalAlign=middle;align=right;fillColor=#00188D;shape=mxgraph.mscae.enterprise.device" vertex="1" parent="1">
          <mxGeometry x="80" y="305" width="28.85" height="15" as="geometry" />
        </mxCell>
        <mxCell id="h60HWDkxlKDAQllnQinD-41" value="Ethetnet Cable" style="edgeStyle=orthogonalEdgeStyle;rounded=0;orthogonalLoop=1;jettySize=auto;html=1;entryX=0.354;entryY=0.081;entryDx=0;entryDy=0;entryPerimeter=0;" edge="1" parent="1" source="h60HWDkxlKDAQllnQinD-3" target="h60HWDkxlKDAQllnQinD-40">
          <mxGeometry x="-0.4313" relative="1" as="geometry">
            <mxPoint as="offset" />
          </mxGeometry>
        </mxCell>
        <mxCell id="h60HWDkxlKDAQllnQinD-63" style="edgeStyle=orthogonalEdgeStyle;rounded=0;orthogonalLoop=1;jettySize=auto;html=1;" edge="1" parent="1" source="h60HWDkxlKDAQllnQinD-42" target="h60HWDkxlKDAQllnQinD-59">
          <mxGeometry relative="1" as="geometry" />
        </mxCell>
        <mxCell id="h60HWDkxlKDAQllnQinD-79" style="edgeStyle=orthogonalEdgeStyle;rounded=0;orthogonalLoop=1;jettySize=auto;html=1;" edge="1" parent="1" source="h60HWDkxlKDAQllnQinD-42" target="h60HWDkxlKDAQllnQinD-78">
          <mxGeometry relative="1" as="geometry" />
        </mxCell>
        <mxCell id="h60HWDkxlKDAQllnQinD-42" value="Ubiquiti&lt;div&gt;Switch&lt;/div&gt;" style="fontColor=#0066CC;verticalAlign=middle;verticalLabelPosition=middle;labelPosition=left;align=right;html=1;outlineConnect=0;fillColor=#CCCCCC;strokeColor=#6881B3;gradientColor=none;gradientDirection=north;strokeWidth=2;shape=mxgraph.networks.switch;" vertex="1" parent="1">
          <mxGeometry x="74.42" y="380" width="55.58" height="20" as="geometry" />
        </mxCell>
        <mxCell id="h60HWDkxlKDAQllnQinD-55" style="edgeStyle=orthogonalEdgeStyle;rounded=0;orthogonalLoop=1;jettySize=auto;html=1;" edge="1" parent="1" source="h60HWDkxlKDAQllnQinD-43" target="h60HWDkxlKDAQllnQinD-50">
          <mxGeometry relative="1" as="geometry" />
        </mxCell>
        <mxCell id="h60HWDkxlKDAQllnQinD-56" style="edgeStyle=orthogonalEdgeStyle;rounded=0;orthogonalLoop=1;jettySize=auto;html=1;" edge="1" parent="1" source="h60HWDkxlKDAQllnQinD-43" target="h60HWDkxlKDAQllnQinD-51">
          <mxGeometry relative="1" as="geometry" />
        </mxCell>
        <mxCell id="h60HWDkxlKDAQllnQinD-69" style="edgeStyle=orthogonalEdgeStyle;rounded=0;orthogonalLoop=1;jettySize=auto;html=1;" edge="1" parent="1" source="h60HWDkxlKDAQllnQinD-43" target="h60HWDkxlKDAQllnQinD-67">
          <mxGeometry relative="1" as="geometry" />
        </mxCell>
        <mxCell id="h60HWDkxlKDAQllnQinD-43" value="Ubiquiti&lt;div&gt;Switch&lt;/div&gt;" style="fontColor=#0066CC;verticalAlign=middle;verticalLabelPosition=middle;labelPosition=right;align=left;html=1;outlineConnect=0;fillColor=#CCCCCC;strokeColor=#6881B3;gradientColor=none;gradientDirection=north;strokeWidth=2;shape=mxgraph.networks.switch;" vertex="1" parent="1">
          <mxGeometry x="470" y="140" width="55.58" height="20" as="geometry" />
        </mxCell>
        <mxCell id="h60HWDkxlKDAQllnQinD-44" value="Fiber cable" style="edgeStyle=orthogonalEdgeStyle;rounded=0;orthogonalLoop=1;jettySize=auto;html=1;entryX=0.512;entryY=0.244;entryDx=0;entryDy=0;entryPerimeter=0;" edge="1" parent="1" source="h60HWDkxlKDAQllnQinD-40" target="h60HWDkxlKDAQllnQinD-42">
          <mxGeometry relative="1" as="geometry" />
        </mxCell>
        <mxCell id="h60HWDkxlKDAQllnQinD-49" value="Fiber Cable" style="edgeStyle=orthogonalEdgeStyle;rounded=0;orthogonalLoop=1;jettySize=auto;html=1;" edge="1" parent="1">
          <mxGeometry relative="1" as="geometry">
            <mxPoint x="119.99999999999977" y="379.99999999999994" as="sourcePoint" />
            <mxPoint x="470" y="150" as="targetPoint" />
            <Array as="points">
              <mxPoint x="370" y="379.96" />
              <mxPoint x="370" y="149.96" />
            </Array>
          </mxGeometry>
        </mxCell>
        <mxCell id="h60HWDkxlKDAQllnQinD-50" value="" style="fontColor=#0066CC;verticalAlign=top;verticalLabelPosition=bottom;labelPosition=center;align=center;html=1;outlineConnect=0;fillColor=#CCCCCC;strokeColor=#6881B3;gradientColor=none;gradientDirection=north;strokeWidth=2;shape=mxgraph.networks.pc;" vertex="1" parent="1">
          <mxGeometry x="448" y="205" width="32" height="25" as="geometry" />
        </mxCell>
        <mxCell id="h60HWDkxlKDAQllnQinD-51" value="" style="fontColor=#0066CC;verticalAlign=top;verticalLabelPosition=bottom;labelPosition=center;align=center;html=1;outlineConnect=0;fillColor=#CCCCCC;strokeColor=#6881B3;gradientColor=none;gradientDirection=north;strokeWidth=2;shape=mxgraph.networks.pc;" vertex="1" parent="1">
          <mxGeometry x="493.58" y="205" width="32" height="25" as="geometry" />
        </mxCell>
        <mxCell id="h60HWDkxlKDAQllnQinD-52" value="" style="fontColor=#0066CC;verticalAlign=top;verticalLabelPosition=bottom;labelPosition=center;align=center;html=1;outlineConnect=0;fillColor=#CCCCCC;strokeColor=#6881B3;gradientColor=none;gradientDirection=north;strokeWidth=2;shape=mxgraph.networks.pc;" vertex="1" parent="1">
          <mxGeometry x="534" y="205" width="32" height="25" as="geometry" />
        </mxCell>
        <mxCell id="h60HWDkxlKDAQllnQinD-53" value="" style="fontColor=#0066CC;verticalAlign=top;verticalLabelPosition=bottom;labelPosition=center;align=center;html=1;outlineConnect=0;fillColor=#CCCCCC;strokeColor=#6881B3;gradientColor=none;gradientDirection=north;strokeWidth=2;shape=mxgraph.networks.pc;" vertex="1" parent="1">
          <mxGeometry x="580" y="205" width="32" height="25" as="geometry" />
        </mxCell>
        <mxCell id="h60HWDkxlKDAQllnQinD-57" style="edgeStyle=orthogonalEdgeStyle;rounded=0;orthogonalLoop=1;jettySize=auto;html=1;entryX=0.5;entryY=0.07;entryDx=0;entryDy=0;entryPerimeter=0;" edge="1" parent="1" source="h60HWDkxlKDAQllnQinD-43" target="h60HWDkxlKDAQllnQinD-52">
          <mxGeometry relative="1" as="geometry" />
        </mxCell>
        <mxCell id="h60HWDkxlKDAQllnQinD-58" style="edgeStyle=orthogonalEdgeStyle;rounded=0;orthogonalLoop=1;jettySize=auto;html=1;entryX=0.5;entryY=0.07;entryDx=0;entryDy=0;entryPerimeter=0;" edge="1" parent="1" source="h60HWDkxlKDAQllnQinD-43" target="h60HWDkxlKDAQllnQinD-53">
          <mxGeometry relative="1" as="geometry" />
        </mxCell>
        <mxCell id="h60HWDkxlKDAQllnQinD-59" value="" style="fontColor=#0066CC;verticalAlign=top;verticalLabelPosition=bottom;labelPosition=center;align=center;html=1;outlineConnect=0;fillColor=#CCCCCC;strokeColor=#6881B3;gradientColor=none;gradientDirection=north;strokeWidth=2;shape=mxgraph.networks.pc;" vertex="1" parent="1">
          <mxGeometry x="42.420000000000016" y="440" width="32" height="25" as="geometry" />
        </mxCell>
        <mxCell id="h60HWDkxlKDAQllnQinD-60" value="" style="fontColor=#0066CC;verticalAlign=top;verticalLabelPosition=bottom;labelPosition=center;align=center;html=1;outlineConnect=0;fillColor=#CCCCCC;strokeColor=#6881B3;gradientColor=none;gradientDirection=north;strokeWidth=2;shape=mxgraph.networks.pc;" vertex="1" parent="1">
          <mxGeometry x="80.00000000000001" y="440" width="32" height="25" as="geometry" />
        </mxCell>
        <mxCell id="h60HWDkxlKDAQllnQinD-62" value="" style="fontColor=#0066CC;verticalAlign=top;verticalLabelPosition=bottom;labelPosition=center;align=center;html=1;outlineConnect=0;fillColor=#CCCCCC;strokeColor=#6881B3;gradientColor=none;gradientDirection=north;strokeWidth=2;shape=mxgraph.networks.pc;" vertex="1" parent="1">
          <mxGeometry x="120.00000000000001" y="440" width="32" height="25" as="geometry" />
        </mxCell>
        <mxCell id="h60HWDkxlKDAQllnQinD-64" style="edgeStyle=orthogonalEdgeStyle;rounded=0;orthogonalLoop=1;jettySize=auto;html=1;entryX=0.5;entryY=0.07;entryDx=0;entryDy=0;entryPerimeter=0;" edge="1" parent="1" source="h60HWDkxlKDAQllnQinD-42" target="h60HWDkxlKDAQllnQinD-60">
          <mxGeometry relative="1" as="geometry" />
        </mxCell>
        <mxCell id="h60HWDkxlKDAQllnQinD-65" style="edgeStyle=orthogonalEdgeStyle;rounded=0;orthogonalLoop=1;jettySize=auto;html=1;entryX=0.5;entryY=0.07;entryDx=0;entryDy=0;entryPerimeter=0;" edge="1" parent="1" source="h60HWDkxlKDAQllnQinD-42" target="h60HWDkxlKDAQllnQinD-62">
          <mxGeometry relative="1" as="geometry" />
        </mxCell>
        <mxCell id="h60HWDkxlKDAQllnQinD-67" value="Ubiquiti U6 AP" style="shape=mxgraph.cisco.misc.access_point;html=1;pointerEvents=1;dashed=0;fillColor=#036897;strokeColor=#ffffff;strokeWidth=2;verticalLabelPosition=bottom;verticalAlign=top;align=center;outlineConnect=0;" vertex="1" parent="1">
          <mxGeometry x="730" y="160" width="60" height="30" as="geometry" />
        </mxCell>
        <mxCell id="h60HWDkxlKDAQllnQinD-70" value="Phone" style="html=1;verticalLabelPosition=bottom;align=center;labelBackgroundColor=#ffffff;verticalAlign=top;strokeWidth=2;strokeColor=#0080F0;shadow=0;dashed=0;shape=mxgraph.ios7.icons.smartphone;" vertex="1" parent="1">
          <mxGeometry x="740" y="320" width="18" height="30" as="geometry" />
        </mxCell>
        <mxCell id="h60HWDkxlKDAQllnQinD-71" value="Phone" style="html=1;verticalLabelPosition=bottom;align=center;labelBackgroundColor=#ffffff;verticalAlign=top;strokeWidth=2;strokeColor=#0080F0;shadow=0;dashed=0;shape=mxgraph.ios7.icons.smartphone;" vertex="1" parent="1">
          <mxGeometry x="790" y="320" width="18" height="30" as="geometry" />
        </mxCell>
        <mxCell id="h60HWDkxlKDAQllnQinD-72" value="Phone" style="html=1;verticalLabelPosition=bottom;align=center;labelBackgroundColor=#ffffff;verticalAlign=top;strokeWidth=2;strokeColor=#0080F0;shadow=0;dashed=0;shape=mxgraph.ios7.icons.smartphone;" vertex="1" parent="1">
          <mxGeometry x="694" y="320" width="18" height="30" as="geometry" />
        </mxCell>
        <mxCell id="h60HWDkxlKDAQllnQinD-75" value="" style="sketch=0;aspect=fixed;pointerEvents=1;shadow=0;dashed=0;html=1;strokeColor=none;labelPosition=center;verticalLabelPosition=bottom;verticalAlign=top;align=center;fillColor=#00188D;shape=mxgraph.mscae.enterprise.wireless_connection" vertex="1" parent="1">
          <mxGeometry x="739" y="240" width="42" height="50" as="geometry" />
        </mxCell>
        <mxCell id="h60HWDkxlKDAQllnQinD-76" value="BUILDING 2" style="rounded=1;whiteSpace=wrap;html=1;fillColor=none;labelPosition=center;verticalLabelPosition=top;align=center;verticalAlign=bottom;" vertex="1" parent="1">
          <mxGeometry x="400" y="120" width="450" height="270" as="geometry" />
        </mxCell>
        <mxCell id="h60HWDkxlKDAQllnQinD-77" value="" style="sketch=0;aspect=fixed;pointerEvents=1;shadow=0;dashed=0;html=1;strokeColor=none;labelPosition=center;verticalLabelPosition=bottom;verticalAlign=top;align=center;fillColor=#00188D;shape=mxgraph.mscae.enterprise.wireless_connection" vertex="1" parent="1">
          <mxGeometry x="228.9" y="520" width="25.2" height="30" as="geometry" />
        </mxCell>
        <mxCell id="h60HWDkxlKDAQllnQinD-78" value="Ubiquiti U6 AP" style="shape=mxgraph.cisco.misc.access_point;html=1;pointerEvents=1;dashed=0;fillColor=#036897;strokeColor=#ffffff;strokeWidth=2;verticalLabelPosition=bottom;verticalAlign=top;align=center;outlineConnect=0;" vertex="1" parent="1">
          <mxGeometry x="213" y="470" width="67" height="29" as="geometry" />
        </mxCell>
        <mxCell id="h60HWDkxlKDAQllnQinD-80" value="" style="html=1;verticalLabelPosition=bottom;align=center;labelBackgroundColor=#ffffff;verticalAlign=top;strokeWidth=2;strokeColor=#0080F0;shadow=0;dashed=0;shape=mxgraph.ios7.icons.smartphone;" vertex="1" parent="1">
          <mxGeometry x="200" y="560" width="18" height="25" as="geometry" />
        </mxCell>
        <mxCell id="h60HWDkxlKDAQllnQinD-81" value="" style="html=1;verticalLabelPosition=bottom;align=center;labelBackgroundColor=#ffffff;verticalAlign=top;strokeWidth=2;strokeColor=#0080F0;shadow=0;dashed=0;shape=mxgraph.ios7.icons.smartphone;" vertex="1" parent="1">
          <mxGeometry x="228.9" y="560" width="18" height="25" as="geometry" />
        </mxCell>
        <mxCell id="h60HWDkxlKDAQllnQinD-82" value="" style="html=1;verticalLabelPosition=bottom;align=center;labelBackgroundColor=#ffffff;verticalAlign=top;strokeWidth=2;strokeColor=#0080F0;shadow=0;dashed=0;shape=mxgraph.ios7.icons.smartphone;" vertex="1" parent="1">
          <mxGeometry x="254.1" y="560" width="18" height="25" as="geometry" />
        </mxCell>
        <mxCell id="h60HWDkxlKDAQllnQinD-83" value="" style="html=1;verticalLabelPosition=bottom;align=center;labelBackgroundColor=#ffffff;verticalAlign=top;strokeWidth=2;strokeColor=#0080F0;shadow=0;dashed=0;shape=mxgraph.ios7.icons.smartphone;" vertex="1" parent="1">
          <mxGeometry x="280" y="560" width="18" height="25" as="geometry" />
        </mxCell>
      </root>
    </mxGraphModel>
  </diagram>
</mxfile>
